<svg width="250" height="250" viewBox="0 0 250 250" fill="none" xmlns="http://www.w3.org/2000/svg">
<path d="M133.75 7.93857L222.003 58.8916C227.418 62.0176 230.753 67.7949 230.753 74.047V175.953C230.753 182.205 227.418 187.982 222.003 191.108L133.75 242.061C128.335 245.188 121.665 245.188 116.25 242.061L27.9968 191.108C22.5823 187.982 19.2468 182.205 19.2468 175.953V74.047C19.2468 67.7949 22.5823 62.0176 27.9968 58.8916L116.25 7.93857C121.665 4.81249 128.335 4.81249 133.75 7.93857Z" stroke="#FFA559" stroke-width="15"/>
<path d="M68.9423 143.729C68.9935 143.998 69.2043 144.189 69.4481 144.189V144.189C69.6872 144.189 69.8952 144.005 69.9511 143.743L73.2955 128.119L80.22 92.3832C80.3869 91.5216 81.1296 90.9629 81.9008 91.1187L87.3117 92.2118C88.1409 92.3794 88.6714 93.301 88.4683 94.2211L80.6567 129.614L75.5337 153.965C75.3887 154.655 74.8665 155.161 74.2391 155.221L63.8346 156.214C63.1069 156.283 62.4459 155.736 62.2887 154.933L57.6788 131.389L50.039 94.8063C49.8521 93.9113 50.3554 93.0182 51.1545 92.8272L58.0188 91.1859C58.815 90.9955 59.5954 91.5763 59.7514 92.4754L65.7279 126.904L68.9423 143.729Z" fill="#FFA559"/>
<path d="M115.213 126.335C115.267 126.561 115.449 126.717 115.656 126.717V126.717C115.857 126.717 116.034 126.572 116.095 126.357L125.702 92.398C125.9 91.6975 126.488 91.231 127.141 91.2567L134.136 91.5321C134.916 91.5628 135.536 92.2798 135.542 93.1581L135.806 131.763L137.019 154.129C137.07 155.072 136.404 155.868 135.565 155.868H129.306C128.492 155.868 127.836 155.118 127.849 154.202L128.17 131.576L127.719 116.952C127.662 115.097 125.342 114.76 124.868 116.537L119.45 136.831C119.274 137.491 118.751 137.956 118.141 137.997L111.872 138.412C111.186 138.457 110.565 137.956 110.382 137.21L105.575 117.567C105.131 115.751 102.762 116.073 102.714 117.955L102.371 131.576L102.819 154.192C102.838 155.112 102.18 155.868 101.363 155.868H95.85C95.0181 155.868 94.3551 155.085 94.3948 154.15L95.285 133.164L95.684 94.4237C95.692 93.6432 96.1878 92.9773 96.8692 92.8317L105.312 91.029C106.059 90.8693 106.79 91.3842 106.989 92.2107L115.213 126.335Z" fill="#FFA559"/>
<path d="M158.174 154.762C158.999 153.236 156.902 151.425 155.371 151.895C154.538 152.151 153.682 152.279 152.803 152.279C149.711 152.279 147.126 150.492 145.05 146.92C143.017 143.348 142 138.618 142 132.731C142 126.843 143.462 121.75 146.385 117.45C149.308 113.15 152.803 111 156.871 111C160.98 111 164.264 113.117 166.721 117.351C169.178 121.584 170.407 127.141 170.407 134.021C170.407 140.9 169.136 147.681 166.594 154.362C164.215 160.72 160.513 167.736 155.488 175.411C155.048 176.084 154.226 176.269 153.587 175.845L147.587 171.868C146.739 171.306 146.619 169.98 147.336 169.222C152.037 164.252 155.65 159.432 158.174 154.762ZM155.536 142.058C158.114 142.058 160.413 141.044 162.434 139.015C162.703 138.745 162.858 138.361 162.879 137.955C162.941 136.801 162.971 135.887 162.971 135.211C162.971 130.978 162.315 127.604 161.001 125.09C159.688 122.51 158.036 121.22 156.044 121.22C154.096 121.22 152.549 122.147 151.405 123.999C150.261 125.851 149.69 128.299 149.69 131.342C149.69 134.318 150.24 136.865 151.342 138.982C152.443 141.033 153.841 142.058 155.536 142.058Z" fill="#FFA559"/>
<path d="M177.189 172.744C176.485 172.395 176.143 171.491 176.407 170.679L191.084 125.578C191.454 124.438 190.634 123.255 189.562 123.383L174.568 125.172C173.64 125.283 172.861 124.397 172.967 123.354L173.998 113.256C174.087 112.383 174.772 111.745 175.551 111.808L187.454 112.777C187.529 112.783 187.604 112.783 187.679 112.776L198.53 111.759C199.438 111.674 200.192 112.537 200.1 113.558L199.341 122.02C199.329 122.148 199.304 122.274 199.267 122.395L189.028 155.454L185.339 174.627C185.144 175.641 184.172 176.199 183.328 175.781L177.189 172.744Z" fill="#FFA559"/>
</svg>
